<?xml version="1.0" encoding="utf-8"?>
<!-- Generator: Adobe Illustrator 27.5.0, SVG Export Plug-In . SVG Version: 6.00 Build 0)  -->
<svg version="1.1" xmlns="http://www.w3.org/2000/svg" xmlns:xlink="http://www.w3.org/1999/xlink" x="0px" y="0px"
	 viewBox="0 0 2200 2200" style="enable-background:new 0 0 2200 2200;" xml:space="preserve">
<g id="background">
	<rect style="fill:#FFFFFF;" width="2200" height="2200"/>
</g>
<g id="Objects">
	<g>
		<g>
			<path style="fill:#5DD7F4;" d="M1527.813,924.919c-0.572,338.578-274.429,593.149-603.732,593.149
				c-369.896,0-630.218-299.864-630.218-669.77c0-171.393,61.482-328.445,163.589-450.265
				c-88.838,108.327-142.159,246.911-142.159,397.935c0,320.416,200.423,580.146,520.829,580.146
				c246.665,0,480.501-177.552,481.104-451.195c24.495,16.701,62.208,27.406,104.538,27.406
				C1464.748,952.326,1503.37,942.06,1527.813,924.919z"/>
		</g>
		<path style="fill:#BFD5E0;" d="M1939.692,885c-23.759,16.201-60.389,26.599-101.453,26.599c-41.717,0-79.195-9.97-102.924-26.599
			c-23.729,16.63-60.492,26.599-102.209,26.599c-41.707,0-78.459-9.97-102.198-26.599c-23.719,16.63-61.207,26.599-102.923,26.599
			c-41.084,0-77.693-10.399-101.463-26.599l187.573-243.182c33.852,27.723,76.57,42.973,120.411,42.973
			c43.035,0,85.15-14.76,118.685-41.574L1939.692,885z"/>
		<path style="fill:#1A3849;" d="M1731.981,615.716c-26.659,21.484-60.566,34.343-97.476,34.343
			c-37.714,0-72.275-13.424-99.191-35.751l58.87-76.31c19.68-25.509,58.167-25.509,77.846,0L1731.981,615.716z"/>
		<path style="fill:#5CBFEA;" d="M1738.411,924.919c-0.562,403.502-314.44,735.093-726.37,735.093
			c-419.396,0-739.608-339.977-739.608-759.373c0-191.771,69.644-367.281,185.019-502.606
			C355.346,519.854,293.863,676.906,293.863,848.299c0,369.906,260.322,669.77,630.218,669.77
			c329.302,0,603.16-254.572,603.732-593.149c24.454,17.14,62.32,27.406,105.293,27.406
			C1676.091,952.326,1713.967,942.06,1738.411,924.919z"/>
		<path style="fill:#4EA3DD;" d="M1948.998,924.919c-0.531,468.437-354.431,877.047-848.998,877.047
			c-468.887,0-848.998-380.111-848.998-848.997c0-212.14,77.806-406.117,206.45-554.936
			C342.077,533.358,272.433,708.868,272.433,900.639c0,419.396,320.211,759.373,739.608,759.373
			c411.93,0,725.808-331.591,726.37-735.093c24.454,17.14,63.066,27.406,106.049,27.406c42.31,0,80.043-10.705,104.527-27.406
			H1948.998z"/>
	</g>
</g>
</svg>
